PathFileType	4	(X/Y/Z)	/Users/itak/Documents/Research/Walk-IL/dataset/trc/00227_00009.trc
DataRate	CameraRate	NumFrames	NumMarkers	Units	OrigDataRate	OrigDataStartFrame	OrigNumFrames
100.000000	100.000000	4	53	mm	100.000000	645	861
Frame#	Time	RPSI			LPSI			L3			STRN			T10			C7			CLAV			RBAK			LBAK			LSHO			LUPA			LAEL			LAOL			LWTS			LWPS			LFRA			LIFD			LHPS			LHTS			RSHO			RUPA			RAEL			RAOL			RWTS			RWPS			RFRA			RIFD			RHTS			RHPS			RBHD			LFHD			RFHD			LBHD			LHIP			RHIP			RASI			LASI			LKNE			LTHI			LANK			LTIP			LTOE			LMT1			LMT5			LHEE			RKNE			RTHI			RANK			RTIP			RTOE			RMT1			RMT5			RHEE			
		X1	Y1	Z1	X2	Y2	Z2	X3	Y3	Z3	X4	Y4	Z4	X5	Y5	Z5	X6	Y6	Z6	X7	Y7	Z7	X8	Y8	Z8	X9	Y9	Z9	X10	Y10	Z10	X11	Y11	Z11	X12	Y12	Z12	X13	Y13	Z13	X14	Y14	Z14	X15	Y15	Z15	X16	Y16	Z16	X17	Y17	Z17	X18	Y18	Z18	X19	Y19	Z19	X20	Y20	Z20	X21	Y21	Z21	X22	Y22	Z22	X23	Y23	Z23	X24	Y24	Z24	X25	Y25	Z25	X26	Y26	Z26	X27	Y27	Z27	X28	Y28	Z28	X29	Y29	Z29	X30	Y30	Z30	X31	Y31	Z31	X32	Y32	Z32	X33	Y33	Z33	X34	Y34	Z34	X35	Y35	Z35	X36	Y36	Z36	X37	Y37	Z37	X38	Y38	Z38	X39	Y39	Z39	X40	Y40	Z40	X41	Y41	Z41	X42	Y42	Z42	X43	Y43	Z43	X44	Y44	Z44	X45	Y45	Z45	X46	Y46	Z46	X47	Y47	Z47	X48	Y48	Z48	X49	Y49	Z49	X50	Y50	Z50	X51	Y51	Z51	X52	Y52	Z52	X53	Y53	Z53	

646	6.45	-568.4075317382812	1047.296875	38.00688934326172	-453.8893127441406	1048.862426757812	-0.9323269128799438	-503.1758422851562	1129.229614257812	12.70354557037354	-425.3625183105469	1303	256.5348510742188	-516.4148559570312	1255.66455078125	19.97835350036621	-507.4424743652344	1513.969970703125	94.00022125244141	-443.9783020019531	1420.564453125	240.9260101318359	-594.2632446289062	1372.612426757812	37.65982818603516	-409.7816162109375	1486.803344726562	33.01130676269531	-324.7549743652344	1489.572631835938	96.60877990722656	-257.4118347167969	1379.882934570312	28.51565933227539	-219.4859771728516	1172.252319335938	6.767492771148682	-292.2213134765625	1156.062255859375	-39.24932098388672	-218.6269073486328	933.4908447265625	101.2657775878906	-158.1679229736328	922.5811767578125	42.63144683837891	-192.0855560302734	1065.71923828125	13.98390769958496	-201.9405670166016	739.129150390625	91.32450103759766	-151.1091766357422	833.6049194335938	55.42866897583008	-180.6460266113281	832.9354858398438	117.0970458984375	-640.7989501953125	1453.921630859375	203.6685180664062	-707.5957641601562	1387.3291015625	203.0503692626953	-756.5426025390625	1111.040771484375	174.5745849609375	-679.4965209960938	1104.2470703125	119.0164794921875	-686.6447143554688	894.067138671875	292.4242858886719	-761.616943359375	881.3860473632812	255.3492431640625	-764.3207397460938	1042.51318359375	200.6496734619141	-683.77734375	700.6375732421875	311.1803588867188	-695.8921508789062	774.4686279296875	335.8444519042969	-756.3226318359375	775.3778076171875	295.8933410644531	-548.0156860351562	1674.930053710938	190.0601043701172	-368.4075927734375	1680.003051757812	329.5006408691406	-457.1133117675781	1672.903076171875	375.1863403320312	-409.00537109375	1680.731811523438	169.3388061523438	-290.2353820800781	978.3919067382812	44.56258392333984	-633.6461791992188	1008.526977539062	166.9478759765625	-569.8154907226562	1044.83251953125	245.3869018554688	-301.083740234375	1022.343811035156	157.5475616455078	-306.3066101074219	491.2880859375	130.6509246826172	-289.2042236328125	635.7048950195312	109.0613098144531	-454.7506713867188	198.6737976074219	-223.3328857421875	-369.93994140625	349.5008850097656	-37.61196136474609	-461.6946411132812	38.00794219970703	-76.62238311767578	-513.430908203125	84.98457336425781	-110.0920486450195	-410.8324890136719	99.49428558349609	-154.5308380126953	-515.4996337890625	248.8386383056641	-236.3582153320312	-561.8904418945312	530.5567016601562	273.1584167480469	-615.43115234375	792.1895751953125	251.5761260986328	-575.94970703125	28.82879829406738	234.5456085205078	-541.6748657226562	408.3123474121094	286.3086547851562	-422.849609375	46.57640075683594	387.3043823242188	-417.998779296875	46.67104339599609	318.470458984375	-537.7283935546875	33.56039047241211	340.572998046875	-558.4545288085938	31.08898544311523	151.2373046875	
647	6.46	-569.9472045898438	1047.697998046875	43.90165328979492	-455.8747253417969	1049.374633789062	3.745287895202637	-505.1189575195312	1130.014526367188	18.17333030700684	-424.3449096679688	1303.456909179688	261.1322937011719	-518.5189208984375	1256.519165039062	25.5519905090332	-508.194091796875	1514.72705078125	99.94989776611328	-442.9727783203125	1421.064208984375	245.9014739990234	-596.0179443359375	1373.554321289062	44.61275863647461	-411.5431823730469	1487.374633789062	37.5776252746582	-325.6342468261719	1490.066162109375	100.0526275634766	-259.1866455078125	1380.333618164062	31.28138160705566	-221.1667327880859	1172.778930664062	9.62547779083252	-294.4019775390625	1156.171875	-35.40345764160156	-218.6592712402344	934.8475952148438	105.9305419921875	-158.8423767089844	923.5490112304688	46.71796798706055	-193.4590911865234	1066.322509765625	17.29079818725586	-200.8721008300781	740.5570068359375	98.46112060546875	-151.059326171875	834.8535766601562	60.58777236938477	-179.8103790283203	834.83740234375	122.6550598144531	-640.037841796875	1454.736083984375	211.4430694580078	-707.03662109375	1388.273681640625	211.7327117919922	-756.9409790039062	1111.955322265625	184.5522766113281	-680.804931640625	1104.939086914062	127.7178192138672	-684.5169067382812	895.9776611328125	302.6508483886719	-760.0701293945312	882.7344970703125	266.8871459960938	-764.0858154296875	1043.48486328125	211.1485443115234	-680.7241821289062	702.7494506835938	323.0190734863281	-692.7095336914062	776.7657470703125	347.2243041992188	-753.7620849609375	777.0927124023438	308.2311706542969	-547.171142578125	1675.671142578125	196.6093444824219	-365.9880676269531	1680.149047851562	334.0874938964844	-454.2004699707031	1673.184692382812	380.7224426269531	-408.3695678710938	1681.185302734375	174.3499908447266	-291.541259765625	979.539794921875	47.72228622436523	-633.706298828125	1008.714660644531	173.5696105957031	-569.469482421875	1045.16796875	251.2149200439453	-301.4560546875	1023.181213378906	160.7560119628906	-303.7092895507812	492.8253479003906	137.6551055908203	-287.6163940429688	637.1194458007812	114.5638809204102	-460.8962707519531	201.4289093017578	-213.5492553710938	-371.3146667480469	351.9410705566406	-29.56021499633789	-455.85400390625	40.09264373779297	-66.48097229003906	-510.5768737792969	86.09315490722656	-97.23690795898438	-410.7622680664062	103.6258850097656	-146.8960571289062	-523.494384765625	250.0232238769531	-223.7525634765625	-561.9722290039062	530.1281127929688	276.108154296875	-615.25	791.951416015625	256.7081909179688	-575.9208984375	28.88138389587402	234.5476684570312	-541.7657470703125	407.8380432128906	288.4453430175781	-422.7872009277344	46.43848419189453	387.3449096679688	-417.7900695800781	46.62151718139648	318.52099609375	-537.6658325195312	33.55906677246094	340.5906372070312	-558.4361572265625	31.14566230773926	151.2573547363281	
648	6.47	-571.3467407226562	1048.072631835938	49.69309616088867	-457.7102355957031	1049.883666992188	8.377556800842285	-506.9446716308594	1130.784912109375	23.58598899841309	-423.3262634277344	1303.9345703125	265.626708984375	-520.5574951171875	1257.353393554688	31.03341293334961	-508.8619689941406	1515.461181640625	105.7832260131836	-441.9590759277344	1421.583740234375	250.7525482177734	-597.7080688476562	1374.4677734375	51.44629287719727	-413.27392578125	1487.9287109375	42.04475021362305	-326.4976196289062	1490.567993164062	103.4102096557617	-260.9724426269531	1380.767211914062	33.98270416259766	-222.9066009521484	1173.2744140625	12.42755889892578	-296.684814453125	1156.246337890625	-31.55018997192383	-218.6482543945312	936.2603149414062	110.6922149658203	-159.5718536376953	924.5276489257812	50.86511993408203	-194.9016418457031	1066.904052734375	20.58694267272949	-199.8179016113281	742.05615234375	105.6266860961914	-151.0513000488281	836.1278076171875	65.79298400878906	-179.0162963867188	836.7678833007812	128.2440948486328	-639.2379760742188	1455.570678710938	219.0236968994141	-706.4314575195312	1389.237060546875	220.220947265625	-757.2282104492188	1112.886108398438	194.4502258300781	-682.037353515625	1105.636352539062	136.3467864990234	-682.2913818359375	897.9083251953125	312.7375183105469	-758.4193115234375	884.1315307617188	278.3218383789062	-763.706787109375	1044.483520507812	221.5912322998047	-677.5567626953125	704.8862915039062	334.6302185058594	-689.3982543945312	779.0864868164062	358.4265441894531	-751.0977172851562	778.8522338867188	320.4187316894531	-546.2735595703125	1676.444946289062	203.0922546386719	-363.4755859375	1680.196533203125	338.5270080566406	-451.1544799804688	1673.381225585938	386.1456604003906	-407.6945190429688	1681.635009765625	179.2696990966797	-292.6404113769531	980.76904296875	51.02222061157227	-633.673583984375	1008.860717773438	180.0250396728516	-569.0819091796875	1045.500610351562	256.9343566894531	-301.8211059570312	1024.070068359375	163.9903411865234	-301.2062377929688	494.4032592773438	144.4660949707031	-285.9971618652344	638.58154296875	119.9724807739258	-466.3121337890625	202.868896484375	-203.1499328613281	-372.4891357421875	353.8965148925781	-21.38159561157227	-450.7189331054688	42.31450653076172	-55.24899673461914	-507.9142761230469	86.89961242675781	-83.84285736083984	-410.8177185058594	106.7830352783203	-137.9968414306641	-530.4759521484375	250.0292358398438	-210.9418182373047	-562.0824584960938	529.7005615234375	278.9730224609375	-615.0844116210938	791.6929321289062	261.6851501464844	-575.891845703125	28.92481422424316	234.5491638183594	-541.8981323242188	407.3740234375	290.5180358886719	-422.7738952636719	46.34236907958984	387.3949279785156	-417.6319580078125	46.6252555847168	318.5732727050781	-537.62451171875	33.55079650878906	340.6084594726562	-558.4232788085938	31.20573806762695	151.2755737304688	
649	6.48	-572.6048583984375	1048.434692382812	55.39503860473633	-459.3973999023438	1050.387451171875	12.96875381469727	-508.6480407714844	1131.537109375	28.94725036621094	-422.3083190917969	1304.428466796875	270.0304565429688	-522.519775390625	1258.156127929688	36.43600082397461	-509.4563293457031	1516.1630859375	111.4995422363281	-440.9468078613281	1422.12060546875	255.4902191162109	-599.3353271484375	1375.341796875	58.16661834716797	-414.968994140625	1488.464477539062	46.42056274414062	-327.3499145507812	1491.072631835938	106.6940841674805	-262.7594299316406	1381.18310546875	36.63888931274414	-224.6907806396484	1173.73876953125	15.17496013641357	-299.0466003417969	1156.301391601562	-27.70775413513184	-218.6185302734375	937.73095703125	115.5289154052734	-160.3586730957031	925.5092163085938	55.05908966064453	-196.4023895263672	1067.465698242188	23.86469841003418	-198.8268737792969	743.6261596679688	112.8028411865234	-151.1202392578125	837.4151611328125	71.02580261230469	-178.2929840087891	838.7229614257812	133.8433380126953	-638.4248657226562	1456.422973632812	226.4023132324219	-705.7894897460938	1390.216674804688	228.5105895996094	-757.3926391601562	1113.8271484375	204.2438659667969	-683.174072265625	1106.338012695312	144.8984527587891	-679.984130859375	899.8512573242188	322.6817016601562	-756.6668090820312	885.5681762695312	289.6222839355469	-763.2088623046875	1045.505615234375	231.9329528808594	-674.2930297851562	707.0428466796875	346.0010375976562	-685.9976196289062	781.4179077148438	369.439697265625	-748.33935546875	780.6484375	332.4255981445312	-545.33154296875	1677.2431640625	209.499755859375	-360.8930358886719	1680.158935546875	342.8086853027344	-447.9941711425781	1673.504028320312	391.4481201171875	-406.9909057617188	1682.077880859375	184.0882568359375	-293.5673828125	982.0271606445312	54.4163932800293	-633.5589599609375	1008.984741210938	186.3355560302734	-568.6287231445312	1045.825805664062	262.5670471191406	-302.1729431152344	1024.99267578125	167.2455291748047	-298.7892150878906	495.9841918945312	151.1157684326172	-284.3515014648438	640.062744140625	125.3031921386719	-470.9009399414062	202.9785919189453	-192.1836242675781	-373.4073486328125	355.3072814941406	-13.05886650085449	-446.4062194824219	44.48081970214844	-42.9129753112793	-505.6398315429688	87.39073181152344	-69.91706085205078	-411.0203552246094	108.809944152832	-127.8760147094727	-536.3003540039062	248.9329986572266	-198.04248046875	-562.2101440429688	529.2765502929688	281.760986328125	-614.9027099609375	791.4376220703125	266.5445556640625	-575.8656005859375	28.95741844177246	234.5514221191406	-542.0595703125	406.9232482910156	292.5246276855469	-422.8068237304688	46.28488922119141	387.451904296875	-417.5349731445312	46.67664337158203	318.6260986328125	-537.604736328125	33.53423309326172	340.6264343261719	-558.4218139648438	31.26667213439941	151.2923126220703	
